<svg id="Layer_1" data-name="Layer 1" xmlns="http://www.w3.org/2000/svg" viewBox="0 0 14.59 26.96"><defs><style>.cls-1{fill:#fff;}</style></defs><title>facebook</title><path class="cls-1" d="M31.73,11.52H28.23c-3.93,0-6.45,2.59-6.45,6.63V21.2H18.27a.55.55,0,0,0-.56.56v4.42a.55.55,0,0,0,.56.56h3.51V37.92a.55.55,0,0,0,.56.56h4.59a.55.55,0,0,0,.56-.56V26.74h4.1a.55.55,0,0,0,.56-.56V21.76a.6.6,0,0,0-.56-.56H27.45V18.6c0-1.26.28-1.89,1.93-1.89h2.35a.55.55,0,0,0,.56-.56V12.08A.55.55,0,0,0,31.73,11.52Z" transform="translate(-17.71 -11.52)"/></svg>