<svg id="Layer_1" data-name="Layer 1" xmlns="http://www.w3.org/2000/svg" viewBox="0 0 28.1 26.85"><defs><style>.cls-1{fill:#fff;}</style></defs><title>linkedin</title><path class="cls-1" d="M11.3,38.42h6V20.32h-6Zm3-26.85A3.16,3.16,0,0,0,11,14.7a3.11,3.11,0,0,0,3.32,3.12h0a3.13,3.13,0,0,0,3.4-3.12A3.1,3.1,0,0,0,14.35,11.58ZM39,28V38.42H33V28.75c0-2.42-.86-4.1-3-4.1a3.29,3.29,0,0,0-3.08,2.19,4.27,4.27,0,0,0-.2,1.48V38.42h-6s.08-16.43,0-18.11h6v2.58s0,0,0,.08h0v-.08a6,6,0,0,1,5.42-3C36.08,19.89,39,22.46,39,28Z" transform="translate(-10.95 -11.58)"/></svg>