<svg id="Layer_1" data-name="Layer 1" xmlns="http://www.w3.org/2000/svg" viewBox="0 0 303.37 183.79"><defs><style>.cls-1{fill:#007faf;}.cls-2{fill:#f48f00;}.cls-3{fill:#c94a38;}</style></defs><title>logo</title><path class="cls-1" d="M67.45,131.78a31.42,31.42,0,0,0-6.89-9.73,31.88,31.88,0,0,0-10-6.44,31.76,31.76,0,0,0-33.51,6.17,31.79,31.79,0,0,0-7,9.8,29.76,29.76,0,0,0-2.7,12.73,28.33,28.33,0,0,0,2.54,11.85,31.43,31.43,0,0,0,6.81,9.65,32.47,32.47,0,0,0,9.95,6.51,30.73,30.73,0,0,0,12,2.41,31.42,31.42,0,0,0,11.93-2.32,31.86,31.86,0,0,0,10-6.44,31.38,31.38,0,0,0,6.89-9.73,30.27,30.27,0,0,0,0-24.46Zm-28.82,34A20.94,20.94,0,0,1,30.23,164a22.29,22.29,0,0,1-11.67-11.53,20,20,0,0,1-1.74-8.2,21.43,21.43,0,0,1,1.78-8.77,22.24,22.24,0,0,1,11.8-11.63,21.66,21.66,0,0,1,16.73.07,22.35,22.35,0,0,1,11.7,11.7,21,21,0,0,1,1.71,8.41,20.74,20.74,0,0,1-1.75,8.47,22.1,22.1,0,0,1-4.75,6.9,22.49,22.49,0,0,1-7,4.62A21.45,21.45,0,0,1,38.64,165.76Z" transform="translate(-7.31 -6.1)"/><path class="cls-1" d="M119.8,142.4a24,24,0,0,0-4.83-7.48,23.34,23.34,0,0,0-7.58-5.25,24.46,24.46,0,0,0-9.91-2,25.25,25.25,0,0,0-4,.36,20.38,20.38,0,0,0-9.3,4.15q-.42.33-.83.69v-4.15h-9.2v59.42h9.2V169.58q.4.34.81.66A20.9,20.9,0,0,0,88.85,173a21.23,21.23,0,0,0,4.68,1.36,25,25,0,0,0,4,.36,24.43,24.43,0,0,0,9.63-1.88,23.92,23.92,0,0,0,7.6-5.07,23.24,23.24,0,0,0,5-7.5,23.5,23.5,0,0,0,1.8-9.13A23.05,23.05,0,0,0,119.8,142.4ZM97.49,166.06A14.05,14.05,0,0,1,92,164.94a14.87,14.87,0,0,1-4.64-3.08,14.39,14.39,0,0,1-3.13-4.66A15,15,0,0,1,83,151.29a15.25,15.25,0,0,1,1.1-5.72,14.47,14.47,0,0,1,7.62-8,13.73,13.73,0,0,1,5.75-1.21,15.43,15.43,0,0,1,5.69,1.06,15,15,0,0,1,4.74,3,13.74,13.74,0,0,1,3.21,4.67,15.87,15.87,0,0,1,1.19,6.28,15.64,15.64,0,0,1-1.06,5.77,13.81,13.81,0,0,1-3,4.63,14.32,14.32,0,0,1-4.69,3.13A15.63,15.63,0,0,1,97.49,166.06Z" transform="translate(-7.31 -6.1)"/><polygon class="cls-1" points="143.52 122.65 132.08 122.65 132.08 108.16 122.88 108.16 122.88 122.65 114.25 122.65 114.25 131.32 122.88 131.32 122.88 167.65 132.08 167.65 132.08 131.32 143.52 131.32 143.52 167.65 152.72 167.65 152.72 131.32 152.72 122.65 143.52 122.65"/><path class="cls-2" d="M201.2,128.75v4.17q-.45-.4-.91-.76a21,21,0,0,0-4.77-2.81,20,20,0,0,0-4.63-1.33,25.24,25.24,0,0,0-3.71-.32,22.86,22.86,0,0,0-8.66,1.72,23.68,23.68,0,0,0-12.76,12.3,23.14,23.14,0,0,0-2,9.72,22.39,22.39,0,0,0,2,9.62,23.94,23.94,0,0,0,5.28,7.32,23.16,23.16,0,0,0,3.15,2.48h-9.48l.75,2.53a22.24,22.24,0,0,0,4.47,8.52,22.47,22.47,0,0,0,6.22,5,23.27,23.27,0,0,0,6.65,2.37,31.4,31.4,0,0,0,5.58.6c.3,0,.9,0,2.71-.2a25.45,25.45,0,0,0,4.68-1,23.66,23.66,0,0,0,5.41-2.45,17.31,17.31,0,0,0,5.05-4.74,17.67,17.67,0,0,0,2.45-4.31,22.84,22.84,0,0,0,1.19-4.27,31.51,31.51,0,0,0,.44-4c.05-1.25.08-2.45.08-3.57V128.75ZM197.9,161a14.81,14.81,0,0,1-4.51,3.64,13,13,0,0,1-6.2,1.42,13.58,13.58,0,0,1-5.68-1.17,13.78,13.78,0,0,1-4.47-3.22,16,16,0,0,1-3-4.75,14.67,14.67,0,0,1-1.09-5.63A15.48,15.48,0,0,1,177,140.82a14.59,14.59,0,0,1,4.5-3.24,13.24,13.24,0,0,1,5.66-1.2,13.06,13.06,0,0,1,5.58,1.2,15.54,15.54,0,0,1,4.6,3.26,14.63,14.63,0,0,1,3,4.73,14.63,14.63,0,0,1,.19,10.63A15.67,15.67,0,0,1,197.9,161ZM178.55,173.1a23.61,23.61,0,0,0,13.62,1.11,20.31,20.31,0,0,0,4.91-1.7,19.7,19.7,0,0,0,4-2.71,13.46,13.46,0,0,1-1.09,4.47,11.49,11.49,0,0,1-3,4,11.28,11.28,0,0,1-4.09,2.21,16.47,16.47,0,0,1-4.66.71,14.6,14.6,0,0,1-5.65-1,14.11,14.11,0,0,1-4-2.43,13,13,0,0,1-2.51-3,22,22,0,0,1-1.45-2.78l-.49-1.19A23.32,23.32,0,0,0,178.55,173.1Z" transform="translate(-7.31 -6.1)"/><path class="cls-2" d="M259.71,142.34a24.16,24.16,0,0,0-4.95-7.48,24.57,24.57,0,0,0-7.42-5.18,22.29,22.29,0,0,0-9.34-2,22.85,22.85,0,0,0-8.66,1.72,23.18,23.18,0,0,0-7.46,4.88,24.83,24.83,0,0,0-5.22,7.5,23.15,23.15,0,0,0-2,9.72,22.1,22.1,0,0,0,1.81,8.81,23.86,23.86,0,0,0,4.95,7.36,24.46,24.46,0,0,0,7.39,5.1,22.23,22.23,0,0,0,9.22,1.94,22.55,22.55,0,0,0,9.37-2,23.94,23.94,0,0,0,7.44-5.2,24.46,24.46,0,0,0,4.9-7.47,22.7,22.7,0,0,0,0-17.75ZM252.32,151a15.44,15.44,0,0,1-1.25,6.39,15,15,0,0,1-3.28,4.71,14.4,14.4,0,0,1-4.56,2.94,13.61,13.61,0,0,1-10.47-.06,14.61,14.61,0,0,1-4.57-3,15,15,0,0,1-3.18-4.65,14.29,14.29,0,0,1-1.18-5.84,15.32,15.32,0,0,1,1.28-6.42,14.63,14.63,0,0,1,8-7.66,13.55,13.55,0,0,1,5-1,13.79,13.79,0,0,1,4.82,1,15.22,15.22,0,0,1,4.65,2.79A14.57,14.57,0,0,1,251,144.7,14.13,14.13,0,0,1,252.32,151Z" transform="translate(-7.31 -6.1)"/><path class="cls-2" d="M308.88,142.34a24.16,24.16,0,0,0-4.95-7.48,24.57,24.57,0,0,0-7.42-5.18,22.29,22.29,0,0,0-9.34-2,22.85,22.85,0,0,0-8.66,1.72A23.18,23.18,0,0,0,271,134.3a24.83,24.83,0,0,0-5.22,7.5,23.16,23.16,0,0,0-2,9.72,22.1,22.1,0,0,0,1.81,8.81,23.86,23.86,0,0,0,4.95,7.36,24.46,24.46,0,0,0,7.39,5.1,22.23,22.23,0,0,0,9.22,1.94,22.55,22.55,0,0,0,9.37-2,23.94,23.94,0,0,0,7.44-5.2,24.46,24.46,0,0,0,4.9-7.47,22.7,22.7,0,0,0,0-17.75ZM301.49,151a15.44,15.44,0,0,1-1.25,6.39A15,15,0,0,1,297,162.1,14.4,14.4,0,0,1,292.4,165a13.61,13.61,0,0,1-10.47-.06,14.61,14.61,0,0,1-4.57-3,15,15,0,0,1-3.18-4.65,14.29,14.29,0,0,1-1.18-5.84,15.32,15.32,0,0,1,1.28-6.42,14.63,14.63,0,0,1,8-7.66,13.55,13.55,0,0,1,5-1,13.79,13.79,0,0,1,4.82,1,15.22,15.22,0,0,1,4.65,2.79,14.57,14.57,0,0,1,3.43,4.57A14.13,14.13,0,0,1,301.49,151Z" transform="translate(-7.31 -6.1)"/><path class="cls-3" d="M146.5,29.36a83.66,83.66,0,0,1,25,0A29.88,29.88,0,0,1,177,26.68a43.17,43.17,0,0,1,5.49-1.61,90.56,90.56,0,0,0-46.91,0A43.17,43.17,0,0,1,141,26.68,29.88,29.88,0,0,1,146.5,29.36Z" transform="translate(-7.31 -6.1)"/><path class="cls-3" d="M225.84,6.1a24.46,24.46,0,0,1-4.7,8.16,23.87,23.87,0,0,1-7,5.47C209,22.45,203,23.39,196.85,23.61c-1.47.07-3.23.08-4.89.17s-3.36.25-5,.48c-1.49.2-3,.47-4.47.81A43.17,43.17,0,0,0,177,26.68a29.88,29.88,0,0,0-5.46,2.68A21.3,21.3,0,0,0,168,32.08a14.79,14.79,0,0,0-3.1,4.28,9.14,9.14,0,0,0-.9,5,10.42,10.42,0,0,1,2.39-4,15.28,15.28,0,0,1,3.54-2.78,28.49,28.49,0,0,1,8.46-3c.58-.12,1.18-.23,1.77-.33a69.47,69.47,0,0,1,7.38-.86l2.33-.12,2.34-.07,3.37-.05,1.47,0c.85,0,1.71-.08,2.57-.15l1.29-.11,1.29-.17c.43-.06.86-.12,1.29-.2l1.28-.26c.85-.16,1.71-.38,2.55-.61A29.8,29.8,0,0,0,216.9,24a22.72,22.72,0,0,0,6.89-8A18.34,18.34,0,0,0,225.84,6.1Z" transform="translate(-7.31 -6.1)"/><path class="cls-3" d="M153.09,36.36a14.79,14.79,0,0,0-3.1-4.28,21.3,21.3,0,0,0-3.49-2.72A29.88,29.88,0,0,0,141,26.68a43.17,43.17,0,0,0-5.49-1.61c-1.48-.34-3-.6-4.47-.81-1.68-.23-3.36-.37-5-.48s-3.42-.1-4.89-.17c-6.11-.22-12.12-1.16-17.33-3.88a23.87,23.87,0,0,1-7-5.47,24.46,24.46,0,0,1-4.7-8.16,18.34,18.34,0,0,0,2,9.91,22.72,22.72,0,0,0,6.89,8,29.8,29.8,0,0,0,9.58,4.53c.84.23,1.7.45,2.55.61l1.28.26c.43.08.86.13,1.29.2l1.29.17,1.29.11c.86.08,1.72.15,2.57.15l1.47,0,3.37.05,2.34.07,2.33.12a69.47,69.47,0,0,1,7.38.86c.59.1,1.18.21,1.77.33a28.49,28.49,0,0,1,8.46,3,15.28,15.28,0,0,1,3.54,2.78,10.42,10.42,0,0,1,2.39,4A9.14,9.14,0,0,0,153.09,36.36Z" transform="translate(-7.31 -6.1)"/><path class="cls-3" d="M231.92,23.47s-16.77,10.77-38.11,9.67a62.78,62.78,0,0,0-6.84.23q-1.16.19-2.29.47a27.56,27.56,0,0,0-15.09,10,27,27,0,0,0-5.53,14.83,27.6,27.6,0,0,0,.27,5.8l-4.11-5.24a1.55,1.55,0,0,0-2.43,0l-4.11,5.24a27.6,27.6,0,0,0,.27-5.79,26.94,26.94,0,0,0-4.83-13.87,27.56,27.56,0,0,0-15.84-11q-1.09-.27-2.22-.46a26.89,26.89,0,0,0-3.79-.34c-.21,0-2.34.09-3.13.12-25.06.92-38-9.67-38-9.67,3.36,9.52,14.26,13.46,23.93,15l.24,0c-.66.5-1.29,1-1.9,1.58a27.19,27.19,0,0,0-8.82,18.13v.13c0,.54-.06,1.08-.06,1.62,0,.09,0,.18,0,.27s0,.08,0,.12q0,.68,0,1.35c0,.11,0,.22,0,.33A27.38,27.38,0,0,0,124.89,87.5a27.53,27.53,0,0,0,6.14-.29l.9-.15a10,10,0,0,1,9.38,3.2l.17.18,6.31,7.47,9.73,11.52a2,2,0,0,0,3,0l9.73-11.52,6.31-7.47.17-.18a10,10,0,0,1,9.38-3.2l.9.15a27.53,27.53,0,0,0,6.14.29A27.38,27.38,0,0,0,218.5,62.09c0-.56.05-1.12.05-1.67,0,0,0-.08,0-.13s0-.18,0-.26c0-.55,0-1.1-.06-1.65v-.09c-.53-6.64-3.7-12.84-8.84-18.17q-.9-.82-1.88-1.56l.25,0C217.66,36.93,228.56,33,231.92,23.47ZM186,41.94a10.35,10.35,0,1,1-10.35,10.35A10.37,10.37,0,0,1,186,41.94Zm-53.83,0a10.35,10.35,0,1,1-10.35,10.35A10.37,10.37,0,0,1,132.2,41.94Zm-5.49,39.18A20.73,20.73,0,0,1,113,75.94c-4.5-4.65-7.1-10-7.1-15.65s2.61-11,7.11-15.65l.37-.32A1,1,0,0,1,115,45.48a18.49,18.49,0,0,0,29.13,20.93,1.26,1.26,0,0,1,2,1.44A20.85,20.85,0,0,1,126.72,81.12ZM167,91.78l-5.73,6.78-.74.88a2,2,0,0,1-3,0l-.74-.88L151,91.78l-5.51-6.52L157.9,69.51a1.4,1.4,0,0,1,2.21,0l12.36,15.75Zm45.15-31.49c0,5.64-2.61,11-7.1,15.65a20.81,20.81,0,0,1-33.26-8.41,1.26,1.26,0,0,1,2-1.4,18.49,18.49,0,0,0,29.58-20.35A1,1,0,0,1,205,44.61l0,0C209.5,49.3,212.11,54.65,212.11,60.29Z" transform="translate(-7.31 -6.1)"/><circle class="cls-3" cx="178.72" cy="46.19" r="6.21"/><circle class="cls-3" cx="124.89" cy="46.19" r="6.21"/></svg>