<svg id="Layer_1" data-name="Layer 1" xmlns="http://www.w3.org/2000/svg" viewBox="0 0 30.34 24.51"><defs><style>.cls-1{fill:#fff;}</style></defs><title>twitter</title><path class="cls-1" d="M40.17,15.66a13,13,0,0,1-3.58,1,6.4,6.4,0,0,0,2.72-3.45,11.54,11.54,0,0,1-4,1.52A6.19,6.19,0,0,0,24.6,19a9,9,0,0,0,.13,1.39,17.52,17.52,0,0,1-12.79-6.49,6.15,6.15,0,0,0,1.92,8.28,5.67,5.67,0,0,1-2.78-.8v.07a6.19,6.19,0,0,0,5,6.1,6.67,6.67,0,0,1-1.66.2,7.3,7.3,0,0,1-1.19-.13A6.3,6.3,0,0,0,19,31.89a12.6,12.6,0,0,1-7.75,2.65,10.25,10.25,0,0,1-1.46-.07,17.49,17.49,0,0,0,9.54,2.78c11.46,0,17.69-9.47,17.69-17.69v-.8A11.6,11.6,0,0,0,40.17,15.66Z" transform="translate(-9.83 -12.74)"/></svg>