<svg xmlns="http://www.w3.org/2000/svg" height="33px" version="1.1" viewBox="-1 0 134 134.03545" width="33px">
<g id="surface1">
<path d="M 125.257812 57.742188 L 6.238281 57.742188 C 2.804688 57.742188 0.0195312 60.53125 0.0195312 63.964844 C 0.0195312 67.402344 2.804688 70.183594 6.238281 70.183594 L 125.257812 70.183594 C 128.695312 70.183594 131.480469 67.402344 131.480469 63.964844 C 131.480469 60.53125 128.695312 57.742188 125.257812 57.742188 Z M 125.257812 57.742188 " style=" stroke:none;fill-rule:nonzero;fill:rgb(0%,0%,0%);fill-opacity:1;" />
<path d="M 120.023438 54.015625 C 120.023438 26.101562 98.851562 2.738281 71.074219 0 C 78.257812 3.621094 91.34375 12.496094 94.351562 30.261719 C 94.527344 31.273438 93.84375 32.238281 92.828125 32.414062 L 92.511719 32.414062 C 91.589844 32.4375 90.789062 31.789062 90.625 30.882812 C 87.289062 10.90625 69.21875 3.050781 65.75 1.714844 C 62.28125 3.050781 44.207031 10.90625 40.875 30.882812 C 40.722656 31.777344 39.945312 32.4375 39.035156 32.4375 L 38.722656 32.4375 C 37.699219 32.292969 36.988281 31.351562 37.132812 30.332031 C 37.132812 30.308594 37.136719 30.285156 37.144531 30.261719 C 40.113281 12.496094 53.199219 3.621094 60.390625 0 C 32.625 2.757812 11.46875 26.109375 11.472656 54.015625 Z M 120.023438 54.015625 " style=" stroke:none;fill-rule:nonzero;fill:rgb(0%,0%,0%);fill-opacity:1;" />
<path d="M 65.75 104.1875 C 49.019531 104.1875 35.460938 90.632812 35.453125 73.902344 L 5.601562 73.902344 L 5.601562 80.40625 L 22.007812 85.742188 C 23.019531 89.53125 24.535156 93.171875 26.511719 96.5625 L 18.910156 112.109375 L 27.816406 121.015625 L 43.175781 113.203125 C 46.582031 115.167969 50.234375 116.664062 54.035156 117.667969 L 59.65625 134.035156 L 72.25 134.035156 L 77.597656 117.628906 C 81.390625 116.613281 85.035156 115.105469 88.433594 113.140625 L 103.980469 120.714844 L 112.886719 111.820312 L 105.0625 96.449219 C 107.019531 93.046875 108.519531 89.402344 109.527344 85.605469 L 125.894531 80.011719 L 125.894531 73.902344 L 96.046875 73.902344 C 96.046875 90.628906 82.484375 104.1875 65.761719 104.1875 C 65.753906 104.1875 65.75 104.1875 65.75 104.1875 Z M 65.75 104.1875 " style=" stroke:none;fill-rule:nonzero;fill:rgb(0%,0%,0%);fill-opacity:1;" />
</g>
</svg>