<svg height="33px" viewBox="0 0 512 512" width="33px" xmlns="http://www.w3.org/2000/svg"><path d="m362 452c0-33.136719-26.863281-60-60-60s-60 26.863281-60 60 26.863281 60 60 60 60-26.863281 60-60zm-75.027344 0c0-8.285156 6.714844-15 15-15s15 6.714844 15 15-6.714844 15-15 15-15-6.714844-15-15zm0 0"/><path d="m302 120h60v-30c0-14.789062-10.898438-26.515625-24.984375-28.988281-16.703125-35.90625-52.878906-61.011719-95.015625-61.011719h-60c-57.890625 0-106 47.109375-106 105v171.597656c-8.804688 5.226563-15 14.417969-15 25.402344v120h60v-120c0-10.984375-6.195312-20.175781-15-25.402344v-171.597656c0-41.351562 34.648438-75 76-75h60c29.328125 0 54.515625 17.085938 66.835938 41.679688-4.046876 5.113281-6.835938 11.292968-6.835938 18.320312zm0 0"/><path d="m15 512h152c8.285156 0 15-6.714844 15-15v-15c0-16.570312-13.429688-30-30-30h-122c-16.570312 0-30 13.429688-30 30v15c0 8.285156 6.714844 15 15 15zm0 0"/><path d="m392 151.511719v165.488281c0 8.277344 6.722656 15 15 15h105v-45c0-69.421875-52.597656-127.9375-120-135.488281zm0 0"/><path d="m362 317v-167h-60c-16.570312 0-30 13.429688-30 30v187.527344c9.429688-3.363282 19.429688-5.527344 30-5.527344 49.628906 0 90 40.371094 90 90 0 23.132812-9.015625 44.039062-23.40625 60h98.40625c24.851562 0 45-20.148438 45-45v-105h-105c-24.8125 0-45-20.1875-45-45zm0 0"/></svg>